<svg width="241" height="35" viewBox="0 0 241 35" fill="none" xmlns="http://www.w3.org/2000/svg">
<path fill-rule="evenodd" clip-rule="evenodd" d="M70.1856 11.2746C68.0792 4.56521 61.861 0 54.8288 0H19.5696C12.5374 0 6.31924 4.5652 4.21282 11.2745L0.303596 23.7261C-1.01391 27.9226 2.12038 32.1918 6.51882 32.1918H9.84502C10.7192 32.1918 11.4917 31.623 11.7513 30.7883V30.7883C12.151 29.5033 11.1907 28.199 9.84502 28.199H9.28079C7.65506 28.199 6.49501 26.6233 6.97786 25.071L7.86736 22.2112C8.46777 20.2809 10.2542 18.9657 12.2757 18.9657H16.6479C18.8649 18.9657 20.8249 17.5254 21.4872 15.4096L21.5566 15.1877C22.1776 13.2039 24.0153 11.8535 26.094 11.8535V11.8535H58.1605V11.8535C59.7567 11.8535 61.1678 12.8904 61.6446 14.4137L64.5791 23.7892C65.2636 25.976 63.63 28.1989 61.3387 28.1989H59.4384C58.0927 28.1989 57.1324 29.5033 57.5321 30.7883V30.7883C57.7917 31.623 58.5642 32.1918 59.4384 32.1918H64.5593C70.6036 32.1918 74.9108 26.3251 73.1003 20.5582L70.1856 11.2746ZM45.3997 32.1918C46.7455 32.1918 47.7057 30.8874 47.306 29.6024V29.6024C47.0464 28.7677 46.2739 28.1989 45.3997 28.1989H31.2101H25.9667C25.9667 28.1989 25.9667 28.1989 25.9667 28.199V28.199C25.9667 28.199 25.9666 28.199 25.9666 28.199H23.8836C23.0094 28.199 22.2369 28.7677 21.9773 29.6025V29.6025C21.5776 30.8875 22.5379 32.1918 23.8836 32.1918H45.3997ZM58.2188 16.4379C57.9611 15.6391 57.2176 15.0977 56.3782 15.0977H53.0808C51.7686 15.0977 50.8374 16.3766 51.2402 17.6254V17.6254C51.4979 18.4243 52.2414 18.9657 53.0808 18.9657H56.3782C57.6904 18.9657 58.6217 17.6867 58.2188 16.4379V16.4379ZM23.2846 16.4414C23.5413 15.6408 24.2857 15.0977 25.1264 15.0977H47.3946C48.234 15.0977 48.9776 15.6391 49.2352 16.4379V16.4379C49.6381 17.6867 48.7068 18.9657 47.3946 18.9657H25.1264C23.8157 18.9657 22.8846 17.6895 23.2846 16.4414V16.4414Z" fill="#2B59FF"/>
<path d="M94.472 10.1978H97.7132L101.532 19.7203H101.733L108.869 10.1978H112.386L109.195 28.1875H105.829L107.412 19.3183L108.14 16.3032H107.939L101.934 24.3685H99.9744L96.7333 16.3032H96.5323L96.2056 19.3183L94.6227 28.1875H91.2811L94.472 10.1978ZM120.236 15.4741C121.124 15.4741 121.928 15.6249 122.648 15.9264C123.385 16.2279 124.005 16.6382 124.507 17.1575C125.027 17.6768 125.42 18.2881 125.688 18.9916C125.973 19.6784 126.115 20.4154 126.115 21.2027C126.115 22.2412 125.931 23.2127 125.563 24.1172C125.194 25.0217 124.675 25.809 124.005 26.479C123.352 27.1322 122.564 27.6515 121.643 28.0367C120.722 28.4053 119.717 28.5895 118.628 28.5895C117.74 28.5895 116.928 28.4388 116.191 28.1372C115.471 27.8357 114.851 27.4254 114.332 26.9061C113.829 26.3869 113.435 25.7838 113.151 25.0971C112.883 24.3936 112.749 23.6398 112.749 22.8358C112.749 21.7973 112.933 20.8342 113.301 19.9464C113.67 19.0419 114.181 18.263 114.834 17.6098C115.504 16.9398 116.3 16.4205 117.221 16.052C118.142 15.6667 119.147 15.4741 120.236 15.4741ZM118.955 25.5493C119.507 25.5493 120.018 25.4488 120.487 25.2478C120.956 25.0301 121.367 24.737 121.718 24.3685C122.07 24 122.338 23.5812 122.522 23.1122C122.723 22.6264 122.824 22.1072 122.824 21.5544C122.824 21.1189 122.749 20.7169 122.598 20.3484C122.447 19.9632 122.238 19.6365 121.97 19.3685C121.718 19.1005 121.409 18.8911 121.04 18.7404C120.688 18.5896 120.311 18.5143 119.909 18.5143C119.357 18.5143 118.846 18.6231 118.377 18.8409C117.908 19.0419 117.497 19.3267 117.146 19.6952C116.794 20.0637 116.517 20.4908 116.316 20.9765C116.132 21.4456 116.04 21.9564 116.04 22.5092C116.04 22.9447 116.115 23.3551 116.266 23.7403C116.417 24.1088 116.626 24.4271 116.894 24.6951C117.162 24.9631 117.472 25.1725 117.824 25.3232C118.176 25.474 118.553 25.5493 118.955 25.5493ZM132.259 28.3885C131.187 28.3885 130.308 28.1037 129.621 27.5342C128.934 26.9647 128.591 26.0937 128.591 24.9212C128.591 24.737 128.599 24.5443 128.616 24.3433C128.633 24.1256 128.666 23.8743 128.716 23.5896L129.571 18.6901H127.41L127.912 15.8761H130.073L130.752 12.1073H134.043L133.365 15.8761H136.38L135.902 18.6901H132.862L132.033 23.4388C131.999 23.6063 131.983 23.7152 131.983 23.7655C131.983 23.8325 131.983 23.9162 131.983 24.0167C131.983 24.3685 132.066 24.67 132.234 24.9212C132.418 25.1557 132.728 25.273 133.164 25.273C133.432 25.273 133.649 25.2478 133.817 25.1976C134.001 25.1306 134.177 25.0468 134.344 24.9463L134.847 27.9362C134.512 28.087 134.135 28.1959 133.716 28.2629C133.298 28.3466 132.812 28.3885 132.259 28.3885ZM144.306 15.4741C145.194 15.4741 145.998 15.6249 146.718 15.9264C147.455 16.2279 148.075 16.6382 148.578 17.1575C149.097 17.6768 149.49 18.2881 149.758 18.9916C150.043 19.6784 150.186 20.4154 150.186 21.2027C150.186 22.2412 150.001 23.2127 149.633 24.1172C149.264 25.0217 148.745 25.809 148.075 26.479C147.422 27.1322 146.634 27.6515 145.713 28.0367C144.792 28.4053 143.787 28.5895 142.698 28.5895C141.81 28.5895 140.998 28.4388 140.261 28.1372C139.541 27.8357 138.921 27.4254 138.402 26.9061C137.899 26.3869 137.506 25.7838 137.221 25.0971C136.953 24.3936 136.819 23.6398 136.819 22.8358C136.819 21.7973 137.003 20.8342 137.372 19.9464C137.74 19.0419 138.251 18.263 138.904 17.6098C139.574 16.9398 140.37 16.4205 141.291 16.052C142.212 15.6667 143.217 15.4741 144.306 15.4741ZM143.025 25.5493C143.578 25.5493 144.088 25.4488 144.557 25.2478C145.026 25.0301 145.437 24.737 145.789 24.3685C146.14 24 146.408 23.5812 146.593 23.1122C146.794 22.6264 146.894 22.1072 146.894 21.5544C146.894 21.1189 146.819 20.7169 146.668 20.3484C146.517 19.9632 146.308 19.6365 146.04 19.3685C145.789 19.1005 145.479 18.8911 145.11 18.7404C144.758 18.5896 144.382 18.5143 143.98 18.5143C143.427 18.5143 142.916 18.6231 142.447 18.8409C141.978 19.0419 141.568 19.3267 141.216 19.6952C140.864 20.0637 140.588 20.4908 140.387 20.9765C140.202 21.4456 140.11 21.9564 140.11 22.5092C140.11 22.9447 140.186 23.3551 140.336 23.7403C140.487 24.1088 140.697 24.4271 140.965 24.6951C141.233 24.9631 141.542 25.1725 141.894 25.3232C142.246 25.474 142.623 25.5493 143.025 25.5493ZM150.748 28.1875L152.909 15.8761H156L155.698 17.5846H155.899C156.301 16.9984 156.82 16.5126 157.457 16.1274C158.093 15.7254 158.839 15.5244 159.693 15.5244C160.129 15.5244 160.48 15.5662 160.748 15.65C161.033 15.7337 161.276 15.8426 161.477 15.9766L160.246 18.9665C160.062 18.8828 159.844 18.8074 159.593 18.7404C159.358 18.6734 159.065 18.6399 158.713 18.6399C157.758 18.6399 156.954 18.9749 156.301 19.6449C155.665 20.2982 155.254 21.1608 155.07 22.2328L154.04 28.1875H150.748ZM164.548 10.1978H167.789L171.608 19.7203H171.809L178.945 10.1978H182.462L179.271 28.1875H175.905L177.487 19.3183L178.216 16.3032H178.015L172.01 24.3685H170.05L166.809 16.3032H166.608L166.282 19.3183L164.699 28.1875H161.357L164.548 10.1978ZM189.617 15.4741C191.309 15.4741 192.599 15.8761 193.487 16.6801C194.374 17.4841 194.818 18.5394 194.818 19.8459C194.818 20.0469 194.801 20.2563 194.768 20.474C194.751 20.675 194.726 20.8928 194.693 21.1273L193.436 28.1875H190.195L190.421 26.881H190.22C189.835 27.3667 189.349 27.7771 188.763 28.1121C188.194 28.4304 187.498 28.5895 186.678 28.5895C186.058 28.5895 185.488 28.489 184.969 28.288C184.467 28.1037 184.031 27.8441 183.663 27.5091C183.311 27.1574 183.034 26.747 182.833 26.278C182.632 25.7922 182.532 25.273 182.532 24.7202C182.532 24.0167 182.666 23.3886 182.934 22.8358C183.219 22.2831 183.612 21.8141 184.115 21.4288C184.634 21.0268 185.245 20.7253 185.949 20.5243C186.669 20.3065 187.457 20.1977 188.311 20.1977C188.931 20.1977 189.492 20.2563 189.994 20.3735C190.513 20.474 191.008 20.608 191.477 20.7755L191.577 20.3987C191.611 20.2312 191.627 20.0972 191.627 19.9967C191.627 19.4607 191.401 19.0168 190.949 18.665C190.513 18.3133 189.936 18.1374 189.215 18.1374C188.579 18.1374 188.018 18.263 187.532 18.5143C187.046 18.7488 186.611 19.0921 186.225 19.5444L184.014 17.9364C184.684 17.0821 185.505 16.4624 186.477 16.0771C187.448 15.6751 188.495 15.4741 189.617 15.4741ZM187.758 26.0267C188.177 26.0267 188.57 25.9514 188.939 25.8006C189.324 25.6331 189.659 25.4237 189.944 25.1725C190.245 24.9045 190.488 24.603 190.673 24.268C190.874 23.9162 191.008 23.5561 191.075 23.1876C190.823 23.0703 190.463 22.9447 189.994 22.8107C189.542 22.6599 189.014 22.5846 188.411 22.5846C187.708 22.5846 187.105 22.7437 186.602 23.0619C186.1 23.3634 185.849 23.8325 185.849 24.469C185.849 24.9882 186.033 25.3818 186.401 25.6498C186.787 25.9011 187.239 26.0267 187.758 26.0267ZM195.601 28.1875L197.762 15.8761H200.852L200.551 17.5846H200.752C201.154 16.9984 201.673 16.5126 202.309 16.1274C202.946 15.7254 203.691 15.5244 204.546 15.5244C204.981 15.5244 205.333 15.5662 205.601 15.65C205.886 15.7337 206.129 15.8426 206.33 15.9766L205.098 18.9665C204.914 18.8828 204.696 18.8074 204.445 18.7404C204.211 18.6734 203.918 18.6399 203.566 18.6399C202.611 18.6399 201.807 18.9749 201.154 19.6449C200.517 20.2982 200.107 21.1608 199.923 22.2328L198.892 28.1875H195.601ZM207.008 15.8761H210.726L212.259 23.7152H212.46L216.932 15.8761H220.726L213.264 28.1875H209.998L207.008 15.8761ZM231.982 25.1725C231.262 26.2445 230.416 27.082 229.444 27.685C228.473 28.288 227.258 28.5895 225.801 28.5895C224.897 28.5895 224.084 28.4388 223.364 28.1372C222.661 27.8357 222.058 27.4254 221.555 26.9061C221.053 26.3701 220.667 25.7503 220.399 25.0468C220.131 24.3266 219.997 23.5644 219.997 22.7604C219.997 21.8057 220.173 20.8928 220.525 20.0218C220.877 19.1508 221.371 18.3803 222.007 17.7103C222.644 17.0235 223.414 16.4791 224.319 16.0771C225.223 15.6751 226.228 15.4741 227.334 15.4741C228.238 15.4741 229.026 15.6165 229.696 15.9012C230.382 16.1692 230.952 16.5377 231.404 17.0068C231.873 17.4758 232.225 18.0201 232.459 18.6399C232.694 19.2597 232.811 19.9129 232.811 20.5997C232.811 21.3869 232.694 22.1156 232.459 22.7856H223.188V23.0368C223.222 23.9413 223.515 24.6113 224.068 25.0468C224.637 25.4656 225.299 25.675 226.052 25.675C226.856 25.675 227.535 25.5242 228.088 25.2227C228.64 24.9045 229.109 24.4522 229.495 23.866L231.982 25.1725ZM229.746 20.4489V20.3484C229.746 19.7789 229.52 19.2764 229.068 18.8409C228.632 18.3886 227.962 18.1625 227.057 18.1625C226.237 18.1625 225.516 18.3886 224.897 18.8409C224.294 19.2764 223.875 19.8124 223.64 20.4489H229.746ZM233.657 28.1875L236.823 10.1978H240.114L236.948 28.1875H233.657Z" fill="black"/>
</svg>
