<svg width="40" height="40" viewBox="0 0 40 40" fill="none" xmlns="http://www.w3.org/2000/svg">
<g clip-path="url(#clip0_308_80)">
<path d="M40 20C40 8.9543 31.0457 0 20 0C8.9543 0 0 8.9543 0 20C0 31.0457 8.9543 40 20 40C31.0457 40 40 31.0457 40 20Z" fill="white"/>
<path d="M19.7471 10C25.1275 10 29.4942 14.3667 29.4942 19.7471C29.4942 25.1275 25.1275 29.4942 19.7471 29.4942C14.3667 29.4942 10 25.1275 10 19.7471C10 14.3667 14.3667 10 19.7471 10ZM19.7471 27.3282C23.9357 27.3282 27.3282 23.9357 27.3282 19.7471C27.3282 15.5586 23.9357 12.166 19.7471 12.166C15.5586 12.166 12.166 15.5586 12.166 19.7471C12.166 23.9357 15.5586 27.3282 19.7471 27.3282ZM28.9368 27.4052L32 30.4684L30.4684 32L27.4052 28.9368L28.9368 27.4052Z" fill="#2C8093"/>
</g>
<defs>
<clipPath id="clip0_308_80">
<rect width="40" height="40" fill="white"/>
</clipPath>
</defs>
</svg>
